HIERARCHY
ROOT root
{
	OFFSET	0.000000	0.000000	0.000000
	CHANNELS 6 Xposition Yposition Zposition Zrotation Yrotation Xrotation
	JOINT lhipjoint
	{
		OFFSET	0.000000	0.000000	0.000000
		CHANNELS 3 Zrotation Yrotation Xrotation
		JOINT lfemur
		{
			OFFSET	1.645494	-1.708786	0.845660
			CHANNELS 3 Zrotation Yrotation Xrotation
			JOINT ltibia
			{
				OFFSET	2.249633	-6.180820	0.000000
				CHANNELS 3 Zrotation Yrotation Xrotation
				JOINT lfoot
				{
					OFFSET	2.717752	-7.466968	0.000000
					CHANNELS 3 Zrotation Yrotation Xrotation
					JOINT ltoes
					{
						OFFSET	0.187679	-0.515643	2.247368
						CHANNELS 3 Zrotation Yrotation Xrotation
						End Site
						{
							OFFSET	0.000000	-0.000000	1.159350
						}
					}
				}
			}
		}
	}
	JOINT rhipjoint
	{
		OFFSET	0.000000	0.000000	0.000000
		CHANNELS 3 Zrotation Yrotation Xrotation
		JOINT rfemur
		{
			OFFSET	-1.588298	-1.708789	0.845662
			CHANNELS 3 Zrotation Yrotation Xrotation
			JOINT rtibia
			{
				OFFSET	-2.250064	-6.182003	0.000000
				CHANNELS 3 Zrotation Yrotation Xrotation
				JOINT rfoot
				{
					OFFSET	-2.728293	-7.495929	0.000000
					CHANNELS 3 Zrotation Yrotation Xrotation
					JOINT rtoes
					{
						OFFSET	-0.215414	-0.591846	2.106425
						CHANNELS 3 Zrotation Yrotation Xrotation
						End Site
						{
							OFFSET	-0.000000	-0.000000	1.098380
						}
					}
				}
			}
		}
	}
	JOINT lowerback
	{
		OFFSET	0.000000	0.000000	0.000000
		CHANNELS 3 Zrotation Yrotation Xrotation
		JOINT upperback
		{
			OFFSET	0.031419	2.104964	-0.110379
			CHANNELS 3 Zrotation Yrotation Xrotation
			JOINT thorax
			{
				OFFSET	-0.018626	2.108971	-0.069557
				CHANNELS 3 Zrotation Yrotation Xrotation
				JOINT lowerneck
				{
					OFFSET	-0.034945	2.110023	-0.018114
					CHANNELS 3 Zrotation Yrotation Xrotation
					JOINT upperneck
					{
						OFFSET	-0.022675	1.732376	0.004511
						CHANNELS 3 Zrotation Yrotation Xrotation
						JOINT head
						{
							OFFSET	-0.058084	1.547243	-0.617485
							CHANNELS 3 Zrotation Yrotation Xrotation
							End Site
							{
								OFFSET	-0.013955	1.714682	-0.210818
							}
						}
					}
				}
				JOINT lclavicle
				{
					OFFSET	-0.034945	2.110023	-0.018114
					CHANNELS 3 Zrotation Yrotation Xrotation
					JOINT lhumerus
					{
						OFFSET	3.448981	0.502979	0.219205
						CHANNELS 3 Zrotation Yrotation Xrotation
						JOINT lradius
						{
							OFFSET	5.419170	-0.000000	-0.000000
							CHANNELS 3 Zrotation Yrotation Xrotation
							JOINT lwrist
							{
								OFFSET	2.443730	-0.000000	0.000000
								CHANNELS 3 Zrotation Yrotation Xrotation
								JOINT lhand
								{
									OFFSET	1.221860	-0.000000	0.000000
									CHANNELS 3 Zrotation Yrotation Xrotation
									JOINT lfingers
									{
										OFFSET	0.727502	-0.000000	0.000000
										CHANNELS 3 Zrotation Yrotation Xrotation
										End Site
										{
											OFFSET	0.586531	-0.000000	0.000000
										}
									}
								}
								JOINT lthumb
								{
									OFFSET	1.221860	-0.000000	0.000000
									CHANNELS 3 Zrotation Yrotation Xrotation
									End Site
									{
										OFFSET	0.595487	-0.000000	0.595487
									}
								}
							}
						}
					}
				}
				JOINT rclavicle
				{
					OFFSET	-0.034945	2.110023	-0.018114
					CHANNELS 3 Zrotation Yrotation Xrotation
					JOINT rhumerus
					{
						OFFSET	-3.230153	0.558301	0.310511
						CHANNELS 3 Zrotation Yrotation Xrotation
						JOINT rradius
						{
							OFFSET	-5.589760	-0.000102	0.000137
							CHANNELS 3 Zrotation Yrotation Xrotation
							JOINT rwrist
							{
								OFFSET	-2.480600	-0.000000	0.000000
								CHANNELS 3 Zrotation Yrotation Xrotation
								JOINT rhand
								{
									OFFSET	-1.240300	-0.000000	0.000000
									CHANNELS 3 Zrotation Yrotation Xrotation
									JOINT rfingers
									{
										OFFSET	-0.816009	-0.000000	0.000000
										CHANNELS 3 Zrotation Yrotation Xrotation
										End Site
										{
											OFFSET	-0.657887	-0.000000	0.000000
										}
									}
								}
								JOINT rthumb
								{
									OFFSET	-1.240300	-0.000000	0.000000
									CHANNELS 3 Zrotation Yrotation Xrotation
									End Site
									{
										OFFSET	-0.667932	-0.000000	0.667932
									}
								}
							}
						}
					}
				}
			}
		}
	}
}
MOTION
Frames:	6
Frame Time:	0.008333
4.322814 16.592896 -15.236182 -3.200301 9.033816 30.179291 0.000000 0.000000 0.000000 -26.207523 10.581924 -26.765983 4.322683 12.577850 37.808100 -3.495887 47.643624 22.183295 0.295159 3.493478 9.655803 0.000000 0.000000 0.000000 28.597978 18.481758 -41.034946 -2.437471 -9.723317 28.085308 -1.751281 -21.232375 -39.830854 -1.020979 -6.428099 18.031712 3.953800 -3.011693 -18.545638 5.282857 -4.538315 -11.669128 2.639901 -2.313170 -2.080991 -2.877222 -8.359295 -14.274805 -2.820339 -11.071223 39.373173 -2.721572 -5.447882 16.539708 0.000000 0.000000 0.000000 -86.215895 26.435362 31.062111 17.646873 -27.702639 -4.383838 -0.000002 0.000002 -6.257601 2.229290 16.259972 0.624478 -7.125020 0.000002 0.000000 -23.479847 44.863650 0.083771 0.000000 0.000000 0.000000 74.359567 -21.455067 29.500508 -12.963630 21.233902 -2.440099 0.000002 -0.000000 -18.926318 4.672569 12.413102 1.006500 7.125020 -0.000002 0.000000 21.784855 -17.953046 15.146824
4.322621 16.587591 -15.236881 -3.199471 9.052829 30.208422 0.000000 0.000000 0.000000 -25.876721 10.711408 -26.513028 4.240773 12.324846 37.780851 -2.052038 45.411298 26.382796 0.037508 1.250071 3.437147 0.000000 0.000000 0.000000 28.733666 18.261657 -40.995073 -2.420993 -9.692817 27.987594 -1.978565 -20.466796 -40.209502 -1.172061 -6.871856 19.336283 3.949163 -2.994372 -18.528132 5.292107 -4.508019 -11.746908 2.662681 -2.298035 -2.175104 -2.795752 -8.115211 -14.532837 -2.738367 -10.772429 39.780063 -2.688729 -5.282668 16.831530 0.000000 0.000000 0.000000 -86.226441 26.419437 31.111936 17.557235 -27.586510 -4.342248 -0.000002 0.000001 -6.177580 2.111687 16.371046 0.595204 -7.125020 0.000002 0.000000 -23.627368 44.951391 0.029760 0.000000 0.000000 0.000000 74.415256 -21.501607 29.485383 -12.939323 21.198244 -2.431303 0.000002 -0.000001 -18.640898 3.537615 12.641168 0.769858 7.125020 -0.000002 0.000000 21.020561 -17.729298 14.639929
4.322213 16.583126 -15.237345 -3.200191 9.065059 30.235497 0.000000 0.000000 0.000000 -25.572343 10.819996 -26.315658 4.169347 12.100266 37.765671 -1.113055 43.565327 29.637172 0.007076 -0.543180 -1.492590 0.000000 0.000000 0.000000 28.847779 18.082499 -40.962154 -2.406659 -9.666180 27.902340 -2.165200 -19.841268 -40.509125 -1.302935 -7.231259 20.402323 3.943540 -2.974562 -18.514547 5.296984 -4.474688 -11.822545 2.681500 -2.281393 -2.265183 -2.684753 -7.864076 -14.828170 -2.676645 -10.466498 40.226480 -2.672761 -5.111173 17.154349 0.000000 0.000000 0.000000 -86.230141 26.413874 31.156284 17.484876 -27.492544 -4.308793 -0.000002 0.000001 -6.110250 2.010667 16.486189 0.570522 -7.125020 0.000002 0.000000 -23.762457 45.044774 -0.028265 0.000000 0.000000 0.000000 74.473017 -21.558223 29.489975 -12.924206 21.176057 -2.425839 0.000002 -0.000001 -18.382373 2.441139 12.936767 0.538352 7.125020 -0.000002 0.000000 20.273449 -17.441662 14.177335
4.321653 16.579873 -15.237161 -3.206638 9.065978 30.254474 0.000000 0.000000 0.000000 -25.338950 10.887776 -26.198948 4.120924 11.942333 37.768848 -0.563302 42.304543 31.815629 0.069250 -1.697768 -4.671120 0.000000 0.000000 0.000000 28.937069 17.956577 -40.935428 -2.395700 -9.645750 27.837007 -2.282526 -19.426000 -40.671605 -1.390582 -7.460761 21.087803 3.940577 -2.949390 -18.504721 5.295405 -4.435186 -11.894237 2.692503 -2.261917 -2.349866 -2.530720 -7.605228 -15.174674 -2.644744 -10.154328 40.732710 -2.682046 -4.932145 17.524010 0.000000 0.000000 0.000000 -86.225406 26.429283 31.186163 17.440419 -27.434714 -4.288290 -0.000002 0.000000 -6.061793 1.940290 16.601761 0.554351 -7.125020 0.000002 0.000000 -23.871423 45.142114 -0.089223 0.000000 0.000000 0.000000 74.534441 -21.633523 29.522032 -12.924655 21.176715 -2.426001 0.000002 -0.000001 -18.160529 1.402928 13.318412 0.313798 7.125020 -0.000002 0.000000 19.555014 -17.070019 13.774903
4.321203 16.577656 -15.235921 -3.225117 9.052716 30.255851 0.000000 0.000000 0.000000 -25.176495 10.934206 -26.120954 4.090747 11.844601 37.769166 -0.243279 41.510837 33.134843 0.133054 -2.351129 -6.477090 0.000000 0.000000 0.000000 29.014271 17.871845 -40.905372 -2.388354 -9.632023 27.793135 -2.324039 -19.218606 -40.673535 -1.426684 -7.552918 21.364145 3.947065 -2.915657 -18.493741 5.287971 -4.386161 -11.959297 2.693194 -2.238266 -2.429288 -2.343077 -7.344063 -15.547785 -2.633333 -9.844816 41.282358 -2.709756 -4.750141 17.927606 0.000000 0.000000 0.000000 -86.216459 26.470562 31.190739 17.424405 -27.413864 -4.280915 -0.000002 0.000000 -6.031186 1.909450 16.702697 0.548860 -7.125020 0.000002 0.000000 -23.940229 45.230709 -0.144957 0.000000 0.000000 0.000000 74.601202 -21.730085 29.569664 -12.943549 21.204442 -2.432831 0.000002 -0.000001 -17.962960 0.426916 13.736171 0.093749 7.125020 -0.000002 0.000000 18.873985 -16.659788 13.416254
4.321089 16.575989 -15.233454 -3.259448 9.021894 30.229155 0.000000 0.000000 0.000000 -25.070807 10.993571 -26.014231 4.066922 11.782575 37.732219 -0.060272 40.980352 33.832915 0.180946 -2.739882 -7.555386 0.000000 0.000000 0.000000 29.092567 17.813275 -40.855723 -2.384177 -9.624206 27.768163 -2.300985 -19.178207 -40.531537 -1.415904 -7.525539 21.281981 3.965099 -2.870987 -18.474638 5.276903 -4.324748 -12.011904 2.685257 -2.209007 -2.500639 -2.145192 -7.085202 -15.890591 -2.616835 -9.545071 41.819212 -2.734610 -4.570699 18.321404 0.000000 0.000000 0.000000 -86.211982 26.528215 31.157400 17.426630 -27.416762 -4.281939 -0.000002 0.000000 -6.010089 1.915602 16.762788 0.552631 -7.125020 0.000002 0.000000 -23.959968 45.286364 -0.179926 0.000000 0.000000 0.000000 74.676098 -21.835699 29.596972 -12.975343 21.251073 -2.444343 0.000002 -0.000001 -17.757398 -0.486308 14.112603 -0.122381 7.125020 -0.000002 0.000000 18.239054 -16.283916 13.074851
